<mxfile host="app.diagrams.net" modified="2024-04-26T21:23:23.357Z" agent="Mozilla/5.0 (Windows NT 10.0; Win64; x64) AppleWebKit/537.36 (KHTML, like Gecko) Chrome/124.0.0.0 Safari/537.36" version="24.3.1" etag="OEyROfVx_mqlfQT4IpSG" type="github">
  <diagram name="PÃ¡gina-1" id="A2ClL_eIoxWLy_4f8bRt">
    <mxGraphModel>
      <root>
        <mxCell id="0" />
        <mxCell id="1" parent="0" />
      </root>
    </mxGraphModel>
  </diagram>
</mxfile>
